<?xml version="1.0" standalone="no"?>
<!DOCTYPE svg PUBLIC "-//W3C//DTD SVG 20010904//EN" "http://www.w3.org/TR/2001/REC-SVG-20010904/DTD/svg10.dtd">
<!-- Created using Krita: http://krita.org -->
<svg xmlns="http://www.w3.org/2000/svg" 
    xmlns:xlink="http://www.w3.org/1999/xlink"
    xmlns:krita="http://krita.org/namespaces/svg/krita"
    xmlns:sodipodi="http://sodipodi.sourceforge.net/DTD/sodipodi-0.dtd"
    width="737.28pt"
    height="737.28pt"
    viewBox="0 0 737.28 737.28">
<defs/>
<path id="shape0" transform="matrix(0.99999988079072 0 0 0.99999988079072 -0.0111582800028607 0)" fill="#000000" fill-rule="evenodd" stroke="#000000" stroke-opacity="0" stroke-width="0" stroke-linecap="square" stroke-linejoin="bevel" d="M0.0217928 0L737.302 0C737.302 245.76 738.063 735.948 668.182 686.88C654.033 616.267 656.611 484.357 582.31 561.737C537.314 606.767 468.851 576.701 458.743 494.099C450.917 435.408 459.474 376.024 448.543 351.291C437.89 329.08 374.71 317.164 349.265 344.672C324.488 370.834 313.433 458.804 328.342 592.92C315.642 691.873 253.544 627.653 239.782 584.28C199.631 431.598 132.719 484.594 122.062 639.36C83.902 769.665 -1.5649 738.545 0.0217928 0Z"/>
</svg>
